<?xml version="1.0" standalone="no"?>
<!DOCTYPE svg PUBLIC "-//W3C//DTD SVG 20010904//EN"
 "http://www.w3.org/TR/2001/REC-SVG-20010904/DTD/svg10.dtd">
<svg version="1.0" xmlns="http://www.w3.org/2000/svg"
 width="512.000000pt" height="512.000000pt" viewBox="0 0 512.000000 512.000000"
 preserveAspectRatio="xMidYMid meet">

<g transform="translate(0.000000,512.000000) scale(0.100000,-0.100000)"
fill="#000000" stroke="none">
<path d="M1453 5110 c-81 -17 -151 -71 -189 -146 -19 -38 -19 -85 -19 -2404 0
-2319 0 -2366 19 -2404 27 -53 80 -104 135 -130 l46 -21 1115 0 1115 0 46 21
c55 26 108 77 135 130 19 38 19 85 19 2404 0 2319 0 2366 -19 2404 -27 53 -80
104 -135 130 -46 21 -48 21 -1136 23 -600 0 -1109 -3 -1132 -7z m500 -257 c-7
-2 -19 -2 -25 0 -7 3 -2 5 12 5 14 0 19 -2 13 -5z m67 -137 c0 -2 -8 -10 -17
-17 -16 -13 -17 -12 -4 4 13 16 21 21 21 13z m1690 -2156 l0 -1860 -1150 0
-1150 0 0 1860 0 1860 1150 0 1150 0 0 -1860z m-1323 -2242 c-3 -8 -6 -5 -6 6
-1 11 2 17 5 13 3 -3 4 -12 1 -19z m350 0 c-3 -8 -6 -5 -6 6 -1 11 2 17 5 13
3 -3 4 -12 1 -19z m-164 -145 c-7 -2 -19 -2 -25 0 -7 3 -2 5 12 5 14 0 19 -2
13 -5z"/>
<path d="M2325 3325 c-25 -24 -25 -24 -25 -235 0 -282 -22 -260 260 -260 211
0 211 0 235 25 25 24 25 24 25 235 0 282 22 260 -260 260 -211 0 -211 0 -235
-25z m364 -160 c40 -20 57 -66 41 -105 -22 -53 -42 -60 -170 -60 -128 0 -148
7 -170 60 -16 38 1 84 39 105 36 20 222 20 260 0z"/>
<path d="M2152 1830 c-41 -38 -40 -92 1 -130 51 -48 137 -7 137 65 0 72 -86
113 -138 65z"/>
</g>
</svg>
